<svg width="14" height="9" viewBox="0 0 14 9" fill="none" xmlns="http://www.w3.org/2000/svg">
<path fill-rule="evenodd" clip-rule="evenodd" d="M4.58578 0.517362C4.63816 0.572516 4.67972 0.638037 4.70808 0.710172C4.73644 0.782307 4.75103 0.859639 4.75103 0.937737C4.75103 1.01584 4.73644 1.09317 4.70808 1.1653C4.67972 1.23744 4.63816 1.30296 4.58578 1.35811L1.6079 4.50024L4.58578 7.64236C4.63808 7.69757 4.67956 7.7631 4.70787 7.83523C4.73617 7.90736 4.75074 7.98467 4.75074 8.06274C4.75074 8.14081 4.73617 8.21811 4.70787 8.29024C4.67956 8.36237 4.63808 8.42791 4.58578 8.48311C4.53348 8.53832 4.47139 8.58211 4.40306 8.61198C4.33473 8.64186 4.26149 8.65724 4.18753 8.65724C4.11357 8.65724 4.04033 8.64186 3.972 8.61198C3.90367 8.58211 3.84158 8.53832 3.78928 8.48311L0.414279 4.92061C0.361895 4.86546 0.320335 4.79994 0.291977 4.7278C0.26362 4.65567 0.249023 4.57834 0.249023 4.50024C0.249023 4.42214 0.26362 4.34481 0.291977 4.27267C0.320335 4.20054 0.361895 4.13502 0.414279 4.07986L3.78928 0.517362C3.84153 0.462068 3.9036 0.418198 3.97194 0.388266C4.04028 0.358333 4.11354 0.342926 4.18753 0.342926C4.26152 0.342926 4.33478 0.358333 4.40312 0.388266C4.47146 0.418198 4.53353 0.462068 4.58578 0.517362Z" fill="#F78CB6" fill-opacity="0.6"/>
<path fill-rule="evenodd" clip-rule="evenodd" d="M0.8125 4.50024C0.8125 4.34277 0.871763 4.19175 0.977253 4.0804C1.08274 3.96905 1.22582 3.90649 1.375 3.90649H13.1875C13.3367 3.90649 13.4798 3.96905 13.5852 4.0804C13.6907 4.19175 13.75 4.34277 13.75 4.50024C13.75 4.65772 13.6907 4.80874 13.5852 4.92009C13.4798 5.03144 13.3367 5.09399 13.1875 5.09399H1.375C1.22582 5.09399 1.08274 5.03144 0.977253 4.92009C0.871763 4.80874 0.8125 4.65772 0.8125 4.50024Z" fill="#F78CB6" fill-opacity="0.6"/>
</svg>
