<svg width="25" height="22" viewBox="0 0 25 22" fill="none" xmlns="http://www.w3.org/2000/svg">
<path d="M25 3.2286C23.4274 3.30398 23.4617 3.29783 23.284 3.31331L24.2153 0.547116C24.2153 0.547116 21.3081 1.65934 20.5711 1.8583C18.6356 0.049023 15.7585 -0.0309178 13.7016 1.28384C12.0172 2.36076 11.1132 4.21011 11.4147 6.37169C8.13656 5.89859 5.37453 4.28251 3.19385 1.55818L2.50416 0.696682L1.98879 1.68097C1.33743 2.92471 1.12114 4.34678 1.37959 5.68515C1.48563 6.23422 1.66588 6.7579 1.91555 7.24826L1.32389 7.00982L1.2537 8.03795C1.18256 9.08233 1.51691 10.3015 2.14825 11.2989C2.32601 11.5797 2.55489 11.8882 2.845 12.1925L2.53925 12.1437L2.91233 13.3218C3.40271 14.8696 4.42123 16.0671 5.74303 16.7328C4.42295 17.3154 3.35655 17.6872 1.6037 18.2868L0 18.8351L1.48125 19.6774C2.04601 19.9985 4.04167 21.0711 6.01349 21.3928C10.3966 22.1077 15.3315 21.5255 18.6537 18.4138C21.4519 15.7928 22.3701 12.0645 22.1794 8.18474C22.1506 7.59738 22.3053 7.0368 22.615 6.60655C23.2355 5.74505 24.9962 3.23436 25 3.2286ZM21.4437 5.69407C20.9293 6.40838 20.6716 7.32066 20.7178 8.26249C20.9103 12.176 19.8864 15.211 17.6744 17.2827C15.0906 19.703 10.9228 20.6529 6.24027 19.889C5.39226 19.7508 4.51584 19.4411 3.79047 19.1319C5.26009 18.606 6.39496 18.1373 8.22773 17.2351L10.7862 15.9757L7.96146 15.7876C6.60839 15.6976 5.48172 15.0156 4.78916 13.9083C5.1569 13.8861 5.51147 13.8242 5.86452 13.7219L8.55865 12.9415L5.84202 12.2496C4.52194 11.9134 3.76949 11.092 3.37067 10.462C3.10879 10.048 2.9377 9.62387 2.83508 9.23289C3.10745 9.30887 3.42503 9.36302 3.93715 9.41578L6.45161 9.67445L4.45938 8.05818C3.02391 6.89378 2.44865 5.14441 2.87037 3.46267C7.35035 8.29522 12.6104 7.93202 13.1399 8.05977C13.0234 6.88247 13.0203 6.8797 12.9898 6.76762C12.3117 4.27478 13.7978 3.00901 14.468 2.58055C15.868 1.68573 18.0902 1.55084 19.6295 3.02508C19.9619 3.34326 20.4115 3.46843 20.8322 3.35972C21.2099 3.26213 21.5198 3.15878 21.8233 3.04631L21.1916 4.92244L21.998 4.92303C21.8458 5.13528 21.6633 5.38939 21.4437 5.69407Z" fill="#A7A7A7"/>
</svg>
