<svg width="24" height="20" viewBox="0 0 24 20" fill="none" xmlns="http://www.w3.org/2000/svg">
<path d="M15.8883 9.40369L10.2633 5.88807C10.0465 5.7526 9.77328 5.74543 9.54974 5.86932C9.32614 5.99321 9.18744 6.22871 9.18744 6.48432V13.5156C9.18744 13.7712 9.32614 14.0066 9.54974 14.1306C9.65595 14.1894 9.77333 14.2187 9.89056 14.2187C10.0201 14.2187 10.1494 14.1829 10.2632 14.1118L15.8882 10.5962C16.0938 10.4677 16.2187 10.2424 16.2187 9.99994C16.2187 9.7575 16.0939 9.53218 15.8883 9.40369ZM10.5937 12.2469V7.75289L14.189 9.99994L10.5937 12.2469Z" fill="#A7A7A7"/>
<path d="M20.4844 0.859375H3.51562C1.57711 0.859375 0 2.43648 0 4.375V15.625C0 17.5635 1.57711 19.1406 3.51562 19.1406H20.4844C22.4229 19.1406 24 17.5635 24 15.625V4.375C24 2.43648 22.4229 0.859375 20.4844 0.859375ZM22.5938 15.625C22.5938 16.7881 21.6475 17.7344 20.4844 17.7344H3.51562C2.35252 17.7344 1.40625 16.7881 1.40625 15.625V4.375C1.40625 3.21189 2.35252 2.26562 3.51562 2.26562H20.4844C21.6475 2.26562 22.5938 3.21189 22.5938 4.375V15.625Z" fill="#A7A7A7"/>
</svg>
